<svg xmlns="http://www.w3.org/2000/svg" width="30" height="31" viewBox="0 0 30 31"><g><g><path fill="#b2b2b2" d="M30.125 15.375c0 8.284-6.715 15-15 15s-15-6.716-15-15c0-8.285 6.715-15 15-15s15 6.715 15 15zm-2.344 0c0-6.99-5.666-12.657-12.656-12.657S2.469 8.385 2.469 15.375 8.135 28.03 15.125 28.03s12.656-5.666 12.656-12.656zm-5.156 0a7.5 7.5 0 1 1-15 0 7.5 7.5 0 0 1 15 0zm-6.141-1.306c.131.291.261.595.391.912a9.674 9.674 0 0 1 1.695-.148h.006c.745 0 1.545.088 2.392.267a5.807 5.807 0 0 0-1.248-3.336c-.918 1.05-2.054 1.787-3.236 2.305zM13.88 9.663c.508.65 1.25 1.713 2.02 3.2 1.093-.47 2.106-1.135 2.873-2.054a5.81 5.81 0 0 0-3.649-1.285c-.428 0-.842.051-1.244.139zm-4.433 4.295c.13.003.286.007.468.007h.091c1.077 0 2.855-.123 4.62-.648-.867-1.649-1.681-2.704-2.087-3.184a5.874 5.874 0 0 0-3.092 3.825zm1.21 5.18a9.976 9.976 0 0 1 1.612-1.88 9.24 9.24 0 0 1 3.294-1.943c-.111-.27-.223-.528-.337-.776-2.08.657-4.134.755-5.311.763-.259 0-.473-.005-.64-.011l-.002.084a5.8 5.8 0 0 0 1.383 3.764zm6.544 1.705a29.002 29.002 0 0 0-1.155-4.282 7.937 7.937 0 0 0-3.04 1.841 8.54 8.54 0 0 0-1.36 1.67 5.81 5.81 0 0 0 5.555.771zm3.668-4.397a10.404 10.404 0 0 0-2.296-.276h-.017c-.42 0-.82.031-1.2.086.41 1.17.783 2.479 1.08 3.932a5.85 5.85 0 0 0 2.433-3.742z"/></g></g></svg>