<svg xmlns="http://www.w3.org/2000/svg" width="31" height="31" viewBox="0 0 31 31"><g><g><path fill="#b2b2b2" d="M31 15.5C31 24.06 24.06 31 15.5 31 6.94 31 0 24.06 0 15.5 0 6.94 6.94 0 15.5 0 24.06 0 31 6.94 31 15.5zm-2.422 0c0-7.223-5.855-13.078-13.078-13.078-7.223 0-13.078 5.855-13.078 13.078 0 7.223 5.855 13.078 13.078 13.078 7.223 0 13.078-5.855 13.078-13.078zm-9.816.363h-2.28v7.387h-2.684v-7.387h-1.976v-2.736h1.976V11c0-1.27.622-3.25 3.345-3.25l1.996.011v2.656h-1.741c-.292 0-.916.14-.916.743v1.968h2.696z"/></g></g></svg>