<svg xmlns="http://www.w3.org/2000/svg" width="31" height="32" viewBox="0 0 31 32"><g><g><path fill="#b2b2b2" d="M30.833 16.083c0 8.515-6.902 15.417-15.417 15.417C6.902 31.5 0 24.598 0 16.083S6.902.667 15.416.667c8.515 0 15.417 6.901 15.417 15.416zm-2.409 0c0-7.184-5.823-13.008-13.008-13.008C8.232 3.075 2.41 8.9 2.41 16.083c0 7.185 5.823 13.008 13.007 13.008 7.185 0 13.008-5.823 13.008-13.008zm-13.19-7.08s1.364.844 1.364 2.494c0 1.65-.798 2.37-1.804 3.258-1.007.888-.42 1.417 1.153 2.537 1.573 1.12 2.014 3.599-.02 5.396-2.035 1.797-8.224 1.556-8.224-1.779 0-3.334 4.657-3.385 5.036-3.385.376 0 .44-.106.126-.444-.317-.336-.82-.993-.232-1.712-1.05.043-3.944-.529-3.944-3.194s2.79-3.806 3.795-3.806H17.5s-.23.19-.755.485c-.525.297-1.511.15-1.511.15zm-1.406 8.987c-2.832 0-4.343.761-4.343 2.306 0 1.544 1.112 2.58 3.188 2.58 2.074 0 3.295-.697 3.295-2.136 0-1.44-1.372-2.159-2.14-2.75zm-1.552-9.114c-2.938 0-1.805 5.835.692 5.835 3.314 0 1.594-5.92-.692-5.835zm8.967 1.429h1.887v.984h-1.887v1.902h-.98v-1.902h-1.92v-.984h1.92V8.407h.98z"/></g></g></svg>