<svg xmlns="http://www.w3.org/2000/svg" width="31" height="31" viewBox="0 0 31 31"><g><g><path fill="#b2b2b2" d="M30.5 15.25c0 8.423-6.827 15.25-15.25 15.25S0 23.673 0 15.25 6.827 0 15.25 0 30.5 6.827 30.5 15.25zm-2.383 0c0-7.107-5.76-12.867-12.867-12.867-7.107 0-12.867 5.76-12.867 12.867 0 7.106 5.76 12.867 12.867 12.867 7.107 0 12.867-5.76 12.867-12.867zM7.631 11.43h2.859v11.438H7.63zm15.238 3.533v7.918l-2.848-.013v-6.672c-.04-.224-.694-1.827-1.906-1.906-2.256-.298-2.86 1.662-2.86 1.906v6.672h-2.859V11.431h2.86v1.906c.16-.08 1.364-1.865 3.812-1.906 3.13.04 3.7 2.39 3.801 3.532zM10.49 9.048a1.43 1.43 0 1 1-2.858 0 1.43 1.43 0 0 1 2.859 0z"/></g></g></svg>