<svg xmlns="http://www.w3.org/2000/svg" width="125" height="125" viewBox="0 0 125 125"><g><g><path fill="#fcac45" d="M62.248 124.486C27.875 124.486.01 96.621.01 62.248.01 27.875 27.875.009 62.248.009c34.373 0 62.239 27.866 62.239 62.239s-27.866 62.238-62.239 62.238zm0-118.82c-31.25 0-56.58 25.333-56.58 56.582 0 31.249 25.33 56.582 56.58 56.582 31.251 0 56.58-25.333 56.58-56.582 0-31.249-25.329-56.582-56.58-56.582z"/></g><g><path d="M87.694 74.054c-.324.48-.855.75-1.462.75-.699 0-1.405-.389-1.767-.618l-.212-.162c-.04-.04-4.608-4.14-12.873-4.14-3.1 0-6.358.573-9.688 1.7a3.52 3.52 0 0 1-1.06.163c-1.302 0-2.328-.743-2.752-1.993l-4.057-11.99c-.167-.367-.459-1.216-.102-2.146.21-.547.709-1.279 1.904-1.684.22-.064 13.412-3.816 16.339-15.477.385-1.153 1.064-2.391 2.317-2.391.5 0 1.406.208 1.88 1.61l4.061 12.019a6.73 6.73 0 0 1 4.403 4.27 6.721 6.721 0 0 1-.909 6.06l4.058 11.994c.1.238.484 1.193-.08 2.035zm-3.646-3.8L80.36 59.36l-2.4-7.1-3.736-11.04C70.227 52.51 58.022 56.332 56.607 56.74l4.084 12.067c3.684-1.263 7.268-1.886 10.686-1.886 6 0 10.277 1.893 12.67 3.335zM58.66 84.786c4.338 4.4-1.086 5.34-1.086 5.34-1.765.6-2.082-1.256-2.082-1.256L51.79 77.906c-.79-2.83-2.546-2.307-2.546-2.307-4.463 1.512-6.09-3.607-6.09-3.607L41.1 65.928c-1.49-4.405 2.997-6.144 2.997-6.144l5.765-1.952c1.86-.629 2.141 1.126 2.141 1.126l4.648 14.035c.39 1.174-.4 3.73-.4 3.73 0 3.64 3.669 5.42 2.409 8.062zm15.926-35.577c-.795 6.264-9.007 8.572-9.355 8.668a1.174 1.174 0 0 1-1.444-.822 1.17 1.17 0 0 1 .82-1.442c.074-.02 7.052-1.996 7.649-6.699a1.182 1.182 0 0 1 1.31-1.014 1.177 1.177 0 0 1 1.02 1.31z"/></g></g></svg>