<svg xmlns="http://www.w3.org/2000/svg" width="125" height="125" viewBox="0 0 125 125"><g><g><path fill="#fcac45" d="M62.248 124.486C27.875 124.486.01 96.621.01 62.248.01 27.875 27.875.009 62.248.009c34.373 0 62.239 27.866 62.239 62.239s-27.866 62.238-62.239 62.238zm0-118.82c-31.25 0-56.58 25.333-56.58 56.582 0 31.249 25.33 56.582 56.58 56.582 31.251 0 56.58-25.333 56.58-56.582 0-31.249-25.329-56.582-56.58-56.582z"/></g><g><path fill="#222" d="M76 89.812c0 .933-.755 1.688-1.688 1.688H50.687a1.687 1.687 0 1 1 0-3.375h3.375a3.377 3.377 0 0 0 3.375-3.375v-5.063h10.125v5.063a3.377 3.377 0 0 0 3.375 3.375h3.375c.933 0 1.688.756 1.688 1.687zm13.5-49.148v32.484c0 1.747-1.323 3.164-2.953 3.164H38.453c-1.63 0-2.953-1.417-2.953-3.164V40.664c0-1.747 1.323-3.165 2.953-3.165h48.094c1.63 0 2.953 1.418 2.953 3.165zm-3.375.21h-47.25v32.063h47.25z"/></g></g></svg>