<svg xmlns="http://www.w3.org/2000/svg" width="125" height="125" viewBox="0 0 125 125"><g><g><path fill="#fcac45" d="M62.248 124.486C27.875 124.486.01 96.621.01 62.248.01 27.875 27.875.009 62.248.009c34.373 0 62.239 27.866 62.239 62.239s-27.866 62.238-62.239 62.238zm0-118.82c-31.25 0-56.58 25.333-56.58 56.582 0 31.249 25.33 56.582 56.58 56.582 31.251 0 56.58-25.333 56.58-56.582 0-31.249-25.329-56.582-56.58-56.582z"/></g><g><path d="M62.425 54.485c6.33 0 11.46 5.131 11.46 11.46 0 6.329-5.13 11.46-11.46 11.46-6.329 0-11.46-5.131-11.46-11.46 0-6.329 5.131-11.46 11.46-11.46zm28.208-4.407v31.734a3.536 3.536 0 0 1-3.526 3.526H37.743a3.536 3.536 0 0 1-3.526-3.526V50.078a3.536 3.536 0 0 1 3.526-3.526h12.341c.882-3.526 1.763-7.052 5.29-7.052h14.103c3.526 0 4.408 3.526 5.29 7.052h12.34a3.536 3.536 0 0 1 3.526 3.526zM78.072 65.945c0-8.642-7.005-15.647-15.647-15.647-8.641 0-15.647 7.005-15.647 15.647s7.006 15.646 15.647 15.646c8.642 0 15.647-7.004 15.647-15.646zm9.035-12.341h-7.052v3.526h7.052z"/></g></g></svg>