<svg xmlns="http://www.w3.org/2000/svg" width="33" height="32" viewBox="0 0 33 32"><g><g><path fill="#b2b2b2" d="M32.25 16.25C32.25 24.949 25.199 32 16.5 32S.75 24.949.75 16.25 7.801.5 16.5.5 32.25 7.55 32.25 16.25zm-2.461 0c0-7.34-5.95-13.29-13.29-13.29-7.339 0-13.288 5.95-13.288 13.29 0 7.34 5.95 13.289 13.289 13.289 7.34 0 13.289-5.95 13.289-13.29zm-6.99-3.444l.002.053-.002.043.002.02c.22 5.643-3.852 10.218-9.094 10.218-1.844 0-3.587-.567-5.082-1.547 2.2.376 3.979-.804 4.5-1.452-1.462 0-2.8-1.346-2.904-2.376.295.049.97.112 1.352-.11-1.984-.585-2.529-2.2-2.506-3.418.332.347 1.037.426 1.419.394-1.118-.744-1.97-2.786-.985-4.623 1.603 2.249 4.449 3.563 6.883 3.63a3.712 3.712 0 0 1-.083-.78c0-1.932 1.455-3.499 3.25-3.499.924 0 1.756.416 2.349 1.082l-.001-.002c.519 0 1.57-.459 2.027-.773-.174.719-.879 1.624-1.354 1.9.742-.079 1.538-.393 1.803-.55a5.855 5.855 0 0 1-1.576 1.79z"/></g></g></svg>